<?xml version="1.0" encoding="utf-8"?>
<!-- Generator: Adobe Illustrator 16.0.4, SVG Export Plug-In . SVG Version: 6.00 Build 0)  -->
<!DOCTYPE svg PUBLIC "-//W3C//DTD SVG 1.1//EN" "http://www.w3.org/Graphics/SVG/1.1/DTD/svg11.dtd">
<svg version="1.1" id="Layer_1" xmlns="http://www.w3.org/2000/svg" xmlns:xlink="http://www.w3.org/1999/xlink" x="0px" y="0px"
	 width="637.333px" height="132.209px" viewBox="0 0 637.333 132.209" enable-background="new 0 0 637.333 132.209"
	 xml:space="preserve">
<g>
	<path fill="#FFFFFF" d="M348.838,25.652l-9.63,41.62c-0.666,2.919-0.979,5.879-1.276,8.61c-0.335-2.731-0.995-5.691-1.495-8.61
		l-6.489-24.042l-12.386,33.528l6.974,28.197h32.818l20.562-79.304H348.838z"/>
	<path fill="#FFFFFF" d="M416.264,24.006c-7.976,0-15.982,0.993-35.259,6.203l4.437,19.596c11.116-2.283,19.569-3.447,25.285-3.447
		c7.972,0,9.968,3.447,9.968,10.31h-13.889c-22.345,0-33.604,7.814-33.604,24.628c0,12.967,4.236,19.825,11.953,22.932
		c9.645-1.381,19.795-2.609,30.399-3.66c1.779-1.442,3.502-3.027,5.14-4.912v4.404c9.41-0.899,19.187-1.646,29.214-2.254V56.667
		C449.909,33.639,439.937,24.006,416.264,24.006 M420.695,80.501c-3.126,2.589-6.83,4.708-11.608,4.708
		c-5.06,0-8.489-2.928-8.489-7.683c0-5.199,3.746-7,10.283-7h9.814V80.501z"/>
	<path fill="#FFFFFF" d="M506.074,55.981c-14.219-4.087-18.136-4.087-18.136-7.82c0-2.435,2.285-3.258,4.906-3.258
		c4.251,0,13.379,0.975,26.923,5.059l7.035-20.567c-16.808-4.74-26.935-5.389-37.729-5.389c-17.617,0-28.879,10.1-28.879,25.799
		c0,13.865,6.542,20.387,21.395,24.966c12.402,3.765,16.472,4.241,16.472,7.511c0,1.95-1.445,2.931-5.543,2.931
		c-6.194,0-17.45-3.252-29.538-8.815l-7.189,19.919c0.706,0.354,1.456,0.7,2.2,1.04c17.098-0.87,34.925-1.332,53.27-1.332
		c3.614,0,7.161,0,10.69,0.03c3.549-4.257,5.484-9.803,5.484-16.563C527.435,66.606,521.08,60.4,506.074,55.981"/>
	<path fill="#FFFFFF" d="M534.464,0v96.27c10.073,0.216,19.937,0.572,29.578,1.068V60.055c3.899-4.392,8.156-7.334,13.223-7.334
		c6.012,0,7.318,2.624,7.318,10.943v34.935c10.205,0.771,20.06,1.649,29.535,2.697V54.364c0-21.548-6.349-30.191-23.014-30.191
		c-8.965,0-16.625,3.763-27.062,12.724V11.323C551.958,7.873,542.003,4.081,534.589,0H534.464z"/>
	<path fill="#FFFFFF" d="M78.355,93.695L70.06,76.866c-10.164,4.747-17.185,6.863-27.938,6.863c-8.007,0-12.097-3.077-13.547-10.6
		h49.112c0.5-4.585,0.668-7.344,0.668-10.923c0-13.704-4.483-23.933-12.414-30.372c-8.979,0.233-18.124,0.368-27.39,0.368
		c-8.302,0-16.469-0.108-24.537-0.286C4.979,38.878,0,50.277,0,65.786C0,78.188,3.441,87.81,9.645,94.623
		c22.162,0.405,43.023,1.553,61.977,3.421C73.845,96.742,76.066,95.318,78.355,93.695 M40.817,44.241
		c7.502,0,11.588,4.56,11.938,13.226H28.411C29.733,48.481,34.115,44.241,40.817,44.241"/>
	<path fill="#FFFFFF" d="M130.119,95.654v9.311h29.199V56.637c0-16.138-4.901-25.678-15.996-29.938
		c-16.469,1.847-34.144,3.28-52.7,4.208l4.244,18.877c11.11-2.297,19.555-3.418,25.291-3.418c7.992,0,9.963,3.418,9.963,10.271
		h-13.886c-22.345,0-33.619,7.845-33.619,24.649c0,8.73,1.918,14.686,5.514,18.585c10.783,1.349,20.836,2.948,29.95,4.74
		C122.523,102.819,126.49,99.799,130.119,95.654 M120.304,70.509h9.814v9.965c-3.104,2.616-6.843,4.738-11.612,4.738
		c-5.029,0-8.451-2.941-8.451-7.686C110.056,72.307,113.792,70.509,120.304,70.509"/>
	<path fill="#FFFFFF" d="M215.488,55.981c-14.207-4.087-18.098-4.087-18.098-7.82c0-2.435,2.273-3.258,4.877-3.258
		c4.239,0,13.375,0.975,26.934,5.059l7.017-20.567c-16.811-4.74-26.934-5.4-37.69-5.4c-17.627,0-28.916,10.111-28.916,25.789
		c0,13.887,6.541,20.408,21.408,24.961c12.385,3.769,16.484,4.268,16.484,7.537c0,1.93-1.474,2.931-5.552,2.931
		c-6.206,0-17.479-3.274-29.563-8.815l-7.187,19.919c12.28,6.043,27.76,10.108,38.863,10.108c19.748,0,32.819-9.469,32.819-26.934
		C236.884,66.606,230.521,60.4,215.488,55.981"/>
	<path fill="#FFFFFF" d="M296.943,25.635c-4.877,18.262-8.967,31.675-14.995,44.557l-3.611-12.258l-11.93-32.299h-30.509
		l28.101,72.146c-5.926,5.697-12.087,8.988-19.741,12.216l9.609,22.212c24.146-7.812,39.176-21.672,50.09-42.438
		c8.646-16.486,16.498-39.81,24.348-64.137H296.943z"/>
	<path fill="#FFFFFF" d="M630.137,25.416c-3.869,0-6.996,3.129-6.996,7.021c0,3.87,3.127,7.034,6.996,7.034
		c3.9,0,7.026-3.164,7.026-7.034C637.164,28.545,634.038,25.416,630.137,25.416 M630.137,38.382c-3.283,0-5.935-2.671-5.935-5.945
		c0-3.253,2.651-5.932,5.935-5.932c3.294,0,5.947,2.679,5.947,5.932C636.084,35.711,633.431,38.382,630.137,38.382"/>
	<path fill="#FFFFFF" d="M627.125,28.729h3.38c0.543,0,1.008,0.084,1.369,0.239c0.689,0.319,1.024,0.899,1.024,1.757
		c0,0.447-0.114,0.811-0.292,1.075c-0.178,0.295-0.429,0.534-0.773,0.7c0.324,0.102,0.526,0.281,0.669,0.473
		c0.157,0.19,0.233,0.506,0.233,0.933l0.049,0.971c0,0.293,0.035,0.532,0.06,0.657c0.084,0.251,0.184,0.406,0.354,0.459v0.165
		h-1.253c-0.026-0.066-0.07-0.165-0.07-0.247c-0.041-0.105-0.041-0.286-0.063-0.593l-0.041-1.235
		c-0.038-0.47-0.198-0.816-0.543-0.986c-0.179-0.102-0.473-0.123-0.87-0.123h-2.25v3.185h-0.981V28.729z M630.38,32.117
		c0.449,0,0.82-0.072,1.08-0.282c0.271-0.164,0.414-0.515,0.414-1.013c0-0.528-0.189-0.896-0.554-1.09
		c-0.225-0.101-0.491-0.156-0.815-0.156h-2.398v2.541H630.38z"/>
</g>
</svg>
