<?xml version="1.0" encoding="utf-8"?>
<!-- Generator: Adobe Illustrator 16.0.4, SVG Export Plug-In . SVG Version: 6.00 Build 0)  -->
<!DOCTYPE svg PUBLIC "-//W3C//DTD SVG 1.1//EN" "http://www.w3.org/Graphics/SVG/1.1/DTD/svg11.dtd">
<svg version="1.1" id="Layer_1" xmlns="http://www.w3.org/2000/svg" xmlns:xlink="http://www.w3.org/1999/xlink" x="0px" y="0px"
	 width="2000px" height="390.517px" viewBox="0 0 2000 390.517" enable-background="new 0 0 2000 390.517" xml:space="preserve">
<g>
	<path fill="#00B2B0" d="M1089.36,75.789l-28.433,122.912c-1.958,8.637-2.903,17.37-3.804,25.449
		c-0.966-8.079-2.907-16.812-4.416-25.449l-19.156-71.018l-36.577,99.055l20.599,83.29h96.927l60.73-234.239H1089.36z"/>
	<path fill="#00B2B0" d="M1288.518,70.931c-23.56,0-47.198,2.895-104.122,18.315l13.076,57.879
		c32.833-6.749,57.79-10.189,74.682-10.189c23.567,0,29.448,10.189,29.448,30.451h-41.02c-66.01,0-99.266,23.074-99.266,72.746
		c0,38.286,12.517,58.554,35.317,67.731c28.491-4.077,58.458-7.697,89.785-10.808c5.25-4.255,10.355-8.933,15.183-14.515v13.014
		c27.794-2.658,56.667-4.865,86.289-6.673V167.387C1387.891,99.363,1358.45,70.931,1288.518,70.931 M1301.602,237.786
		c-9.235,7.663-20.18,13.896-34.271,13.896c-14.963,0-25.065-8.655-25.065-22.672c0-15.369,11.048-20.678,30.378-20.678h28.959
		V237.786z"/>
	<path fill="#00B2B0" d="M1553.797,165.348c-41.994-12.043-53.568-12.043-53.568-23.093c0-7.193,6.751-9.605,14.478-9.605
		c12.562,0,39.547,2.879,79.546,14.933l20.773-60.741c-49.649-14.027-79.542-15.91-111.43-15.91
		c-52.071,0-85.318,29.828-85.318,76.174c0,40.97,19.329,60.233,63.182,73.77c36.644,11.11,48.67,12.524,48.67,22.153
		c0,5.781-4.288,8.676-16.364,8.676c-18.318,0-51.573-9.612-87.264-26.044l-21.233,58.849c2.099,1.045,4.301,2.057,6.503,3.068
		c50.491-2.584,103.188-3.932,157.35-3.932c10.658,0,21.15,0,31.568,0.083c10.484-12.582,16.19-28.947,16.19-48.911
		C1616.879,196.75,1598.109,178.418,1553.797,165.348"/>
	<path fill="#00B2B0" d="M1637.647,0v284.366c29.756,0.626,58.885,1.692,87.376,3.144V177.412
		c11.509-12.98,24.087-21.693,39.058-21.693c17.763,0,21.615,7.761,21.615,32.345v103.188c30.137,2.272,59.262,4.86,87.26,7.966
		V160.589c0-63.664-18.774-89.184-68.001-89.184c-26.463,0-49.085,11.104-79.932,37.583v-75.54
		c-35.698-10.195-65.077-21.387-86.994-33.448H1637.647z"/>
	<path fill="#5C186A" d="M290.403,276.777l-24.514-49.725c-30,14.018-50.731,20.271-82.516,20.271
		c-23.643,0-35.704-9.078-39.999-31.319h145.067c1.464-13.527,1.961-21.681,1.961-32.252c0-40.482-13.25-70.689-36.648-89.715
		c-26.534,0.699-53.564,1.099-80.936,1.099c-24.514,0-48.637-0.329-72.455-0.873c-26.678,20.58-41.396,54.249-41.396,100.061
		c0,36.652,10.173,65.052,28.499,85.174c65.454,1.198,127.064,4.607,183.038,10.11C277.083,285.76,283.652,281.546,290.403,276.777
		 M179.53,130.68c22.166,0,34.222,13.464,35.242,39.068h-71.889C146.801,143.198,159.731,130.68,179.53,130.68"/>
	<path fill="#5C186A" d="M443.304,282.542v27.495h86.244V167.304c0-47.67-14.453-75.841-47.257-88.45
		c-48.638,5.462-100.837,9.7-155.629,12.443l12.52,55.754c32.796-6.76,57.762-10.103,74.686-10.103
		c23.63,0,29.436,10.103,29.436,30.355h-41.011c-66.018,0-99.303,23.172-99.303,72.805c0,25.795,5.661,43.379,16.294,54.899
		c31.85,3.985,61.539,8.692,88.458,14.009C420.893,303.7,432.571,294.775,443.304,282.542 M414.319,208.267h28.984v29.432
		c-9.161,7.751-20.205,14.005-34.299,14.005c-14.865,0-24.968-8.684-24.968-22.692C384.037,213.596,395.089,208.267,414.319,208.267
		"/>
	<path fill="#5C186A" d="M695.479,165.348c-41.965-12.043-53.465-12.043-53.465-23.093c0-7.193,6.714-9.605,14.407-9.605
		c12.52,0,39.505,2.879,79.542,14.933l20.735-60.741C707.045,72.813,677.152,70.87,645.373,70.87
		c-52.067,0-85.418,29.889-85.418,76.185c0,41.02,19.326,60.283,63.244,73.744c36.577,11.123,48.708,12.6,48.708,22.229
		c0,5.715-4.367,8.676-16.427,8.676c-18.326,0-51.607-9.688-87.314-26.044l-21.221,58.849
		c36.254,17.841,81.993,29.851,114.789,29.851c58.321,0,96.918-27.968,96.918-79.542
		C758.651,196.75,739.873,178.418,695.479,165.348"/>
	<path fill="#5C186A" d="M936.069,75.716c-14.406,53.948-26.489,93.558-44.299,131.622l-10.665-36.196l-35.24-95.426h-90.112
		l83.009,213.104c-17.484,16.846-35.701,26.55-58.325,36.104l28.396,65.592c71.33-23.075,115.729-64.016,147.974-125.352
		c25.525-48.688,48.712-117.583,71.886-189.449H936.069z"/>
	<path fill="#FFFFFF" d="M1920.262,75.077c-11.43,0-20.652,9.238-20.652,20.746c0,11.426,9.223,20.775,20.652,20.775
		c11.504,0,20.74-9.35,20.74-20.775C1941.002,84.315,1931.766,75.077,1920.262,75.077 M1920.262,113.374
		c-9.721,0-17.538-7.892-17.538-17.551c0-9.627,7.817-17.521,17.538-17.521s17.563,7.895,17.563,17.521
		C1937.825,105.482,1929.982,113.374,1920.262,113.374"/>
	<path fill="#FFFFFF" d="M1911.35,84.869h9.99c1.589,0,2.974,0.242,4.04,0.705c2.02,0.943,3.031,2.662,3.031,5.184
		c0,1.327-0.319,2.396-0.871,3.185c-0.526,0.865-1.261,1.563-2.269,2.067c0.945,0.303,1.56,0.827,1.966,1.396
		c0.481,0.55,0.688,1.482,0.688,2.739l0.166,2.88c0,0.869,0.087,1.576,0.153,1.947c0.24,0.734,0.535,1.203,1.045,1.346v0.487h-3.707
		c-0.066-0.187-0.203-0.487-0.203-0.715c-0.108-0.313-0.108-0.863-0.187-1.746l-0.138-3.664c-0.104-1.392-0.567-2.418-1.58-2.907
		c-0.547-0.299-1.405-0.367-2.575-0.367h-6.644v9.399h-2.907V84.869z M1920.967,94.893c1.336,0,2.447-0.241,3.219-0.854
		c0.767-0.479,1.194-1.503,1.194-2.976c0-1.571-0.568-2.662-1.646-3.227c-0.644-0.301-1.431-0.46-2.394-0.46h-7.083v7.517H1920.967z
		"/>
</g>
<g>
	<line fill="none" stroke="#000000" stroke-width="0.3" x1="778.395" y1="95.279" x2="778.395" y2="131.279"/>
	<line fill="none" stroke="#000000" stroke-width="0.3" x1="724.395" y1="149.279" x2="760.395" y2="149.279"/>
	<line fill="none" stroke="#000000" stroke-width="0.3" x1="724.395" y1="241.237" x2="760.395" y2="241.237"/>
	<line fill="none" stroke="#000000" stroke-width="0.3" x1="778.395" y1="295.237" x2="778.395" y2="259.237"/>
	<line fill="none" stroke="#000000" stroke-width="0.3" x1="1221.574" y1="95.279" x2="1221.574" y2="131.279"/>
	<line fill="none" stroke="#000000" stroke-width="0.3" x1="1275.574" y1="149.279" x2="1239.574" y2="149.279"/>
	<line fill="none" stroke="#000000" stroke-width="0.3" x1="1275.574" y1="241.237" x2="1239.574" y2="241.237"/>
	<line fill="none" stroke="#000000" stroke-width="0.3" x1="1221.574" y1="295.237" x2="1221.574" y2="259.237"/>
</g>
</svg>
