<?xml version="1.0" encoding="utf-8"?>
<!-- Generator: Adobe Illustrator 16.0.4, SVG Export Plug-In . SVG Version: 6.00 Build 0)  -->
<!DOCTYPE svg PUBLIC "-//W3C//DTD SVG 1.1//EN" "http://www.w3.org/Graphics/SVG/1.1/DTD/svg11.dtd">
<svg version="1.1" id="Layer_1" xmlns="http://www.w3.org/2000/svg" xmlns:xlink="http://www.w3.org/1999/xlink" x="0px" y="0px"
	 width="508.45px" height="105.502px" viewBox="0 0 508.45 105.502" enable-background="new 0 0 508.45 105.502"
	 xml:space="preserve">
<g>
	<path fill="#00B2B0" d="M278.371,20.475l-7.684,33.207c-0.528,2.332-0.784,4.692-1.028,6.875c-0.259-2.183-0.784-4.543-1.191-6.875
		l-5.175-19.187l-9.882,26.761l5.564,22.502h26.188l16.406-63.283H278.371z"/>
	<path fill="#00B2B0" d="M332.172,19.164c-6.362,0-12.751,0.782-28.129,4.948l3.533,15.637c8.87-1.824,15.614-2.752,20.18-2.752
		c6.362,0,7.953,2.752,7.953,8.225h-11.083c-17.834,0-26.816,6.235-26.816,19.654c0,10.342,3.382,15.818,9.541,18.299
		c7.698-1.104,15.792-2.081,24.256-2.923c1.421-1.146,2.797-2.411,4.103-3.919v3.516c7.51-0.719,15.308-1.314,23.312-1.803V45.222
		C359.022,26.845,351.069,19.164,332.172,19.164 M335.709,64.242c-2.497,2.069-5.453,3.755-9.26,3.755
		c-4.043,0-6.773-2.338-6.773-6.127c0-4.15,2.985-5.587,8.209-5.587h7.824V64.242z"/>
	<path fill="#00B2B0" d="M403.842,44.67c-11.346-3.253-14.472-3.253-14.472-6.239c0-1.944,1.824-2.595,3.91-2.595
		c3.393,0,10.684,0.777,21.489,4.034l5.611-16.41c-13.413-3.788-21.488-4.296-30.101-4.296c-14.068,0-23.05,8.057-23.05,20.579
		c0,11.066,5.223,16.271,17.068,19.927c9.899,3.004,13.15,3.387,13.15,5.988c0,1.561-1.157,2.341-4.424,2.341
		c-4.946,0-13.932-2.597-23.576-7.034l-5.733,15.898c0.566,0.28,1.161,0.555,1.754,0.828c13.643-0.697,27.877-1.062,42.512-1.062
		c2.878,0,5.716,0,8.526,0.024c2.834-3.4,4.377-7.822,4.377-13.216C420.885,53.155,415.813,48.202,403.842,44.67"/>
	<path fill="#00B2B0" d="M426.497,0v76.825c8.039,0.17,15.907,0.457,23.605,0.849V47.931c3.107-3.509,6.507-5.863,10.55-5.863
		c4.798,0,5.837,2.098,5.837,8.74v27.877c8.146,0.614,16.011,1.313,23.576,2.153V43.385c0-17.2-5.072-24.093-18.371-24.093
		c-7.15,0-13.262,2.999-21.592,10.153V9.037C440.458,6.285,432.519,3.259,426.596,0H426.497z"/>
	<path fill="#FFFFFF" d="M62.523,74.775L55.9,61.341c-8.104,3.786-13.704,5.477-22.292,5.477c-6.385,0-9.644-2.452-10.806-8.462
		h39.192c0.398-3.655,0.529-5.858,0.529-8.712c0-10.937-3.579-19.098-9.901-24.237c-7.169,0.188-14.47,0.296-21.866,0.296
		c-6.622,0-13.138-0.089-19.573-0.233C3.975,31.027,0,40.122,0,52.498c0,9.903,2.749,17.577,7.698,23.011
		c17.682,0.323,34.327,1.247,49.45,2.73C58.924,77.202,60.7,76.062,62.523,74.775 M32.568,35.306c5.989,0,9.248,3.636,9.522,10.554
		H22.669C23.727,38.687,27.223,35.306,32.568,35.306"/>
	<path fill="#FFFFFF" d="M103.831,76.333v7.428h23.298V45.2c0-12.879-3.905-20.49-12.766-23.896
		c-13.138,1.476-27.241,2.621-42.044,3.36l3.383,15.063c8.86-1.825,15.604-2.73,20.176-2.73c6.385,0,7.954,2.73,7.954,8.202h-11.08
		c-17.834,0-26.827,6.261-26.827,19.669c0,6.969,1.53,11.717,4.402,14.832c8.603,1.076,16.625,2.347,23.897,3.786
		C97.775,82.047,100.931,79.637,103.831,76.333 M96,56.266h7.832v7.951C101.356,66.311,98.371,68,94.564,68
		c-4.014,0-6.744-2.345-6.744-6.13C87.821,57.705,90.806,56.266,96,56.266"/>
	<path fill="#FFFFFF" d="M171.958,44.67c-11.336-3.253-14.444-3.253-14.444-6.239c0-1.944,1.813-2.595,3.892-2.595
		c3.381,0,10.674,0.777,21.489,4.034l5.601-16.41c-13.412-3.788-21.489-4.315-30.075-4.315c-14.064,0-23.076,8.076-23.076,20.583
		c0,11.081,5.223,16.286,17.087,19.925c9.88,3.004,13.158,3.404,13.158,6.006c0,1.54-1.18,2.341-4.439,2.341
		c-4.949,0-13.942-2.617-23.586-7.034l-5.734,15.898c9.796,4.819,22.151,8.063,31.011,8.063c15.757,0,26.183-7.556,26.183-21.488
		C189.025,53.155,183.954,48.202,171.958,44.67"/>
	<path fill="#FFFFFF" d="M236.957,20.457c-3.892,14.573-7.156,25.275-11.967,35.557l-2.882-9.777l-9.522-25.78h-24.343
		l22.425,57.572c-4.722,4.55-9.644,7.173-15.757,9.753l7.672,17.721c19.269-6.234,31.266-17.294,39.976-33.864
		c6.896-13.154,13.157-31.768,19.42-51.181H236.957z"/>
	<path fill="#00B2B0" d="M502.846,20.283c-3.09,0-5.579,2.497-5.579,5.608c0,3.085,2.489,5.61,5.579,5.61
		c3.107,0,5.604-2.525,5.604-5.61C508.45,22.78,505.954,20.283,502.846,20.283 M502.846,30.63c-2.627,0-4.739-2.133-4.739-4.739
		c0-2.603,2.112-4.735,4.739-4.735c2.626,0,4.746,2.133,4.746,4.735C507.592,28.497,505.472,30.63,502.846,30.63"/>
	<path fill="#00B2B0" d="M500.438,22.928h2.7c0.429,0,0.803,0.066,1.091,0.19c0.544,0.255,0.818,0.719,0.818,1.4
		c0,0.361-0.086,0.649-0.237,0.862c-0.141,0.233-0.337,0.424-0.61,0.559c0.255,0.083,0.422,0.226,0.529,0.377
		c0.133,0.15,0.188,0.401,0.188,0.738l0.044,0.779c0,0.236,0.022,0.425,0.041,0.527c0.066,0.198,0.145,0.326,0.281,0.364v0.129
		h-1.003c-0.015-0.05-0.052-0.129-0.052-0.192c-0.029-0.083-0.029-0.233-0.052-0.47l-0.037-0.991
		c-0.025-0.377-0.151-0.653-0.425-0.784c-0.148-0.082-0.381-0.1-0.695-0.1h-1.795v2.538h-0.787V22.928z M503.038,25.636
		c0.359,0,0.659-0.063,0.866-0.229c0.211-0.13,0.325-0.407,0.325-0.805c0-0.424-0.155-0.72-0.443-0.871
		c-0.174-0.082-0.389-0.126-0.647-0.126h-1.913v2.031H503.038z"/>
</g>
</svg>
